<?xml version="1.0" encoding="UTF-8" standalone="no"?>
<svg
   xmlns:dc="http://purl.org/dc/elements/1.1/"
   xmlns:cc="http://creativecommons.org/ns#"
   xmlns:rdf="http://www.w3.org/1999/02/22-rdf-syntax-ns#"
   xmlns:svg="http://www.w3.org/2000/svg"
   xmlns="http://www.w3.org/2000/svg"
   xmlns:sodipodi="http://sodipodi.sourceforge.net/DTD/sodipodi-0.dtd"
   xmlns:inkscape="http://www.inkscape.org/namespaces/inkscape"
   version="1.1"
   id="Capa_1"
   x="0px"
   y="0px"
   width="628.254px"
   height="613.516px"
   viewBox="0 0 628.254 613.516"
   enable-background="new 0 0 628.254 613.516"
   xml:space="preserve"
   sodipodi:docname="Recycling_symbol.svg"
   inkscape:version="1.0.1 (3bc2e813f5, 2020-09-07)"
   inkscape:export-filename="/home/vokimon/Documentos/webs/desconectaibex35.org/content/images/icons/Recycling_symbol.png"
   inkscape:export-xdpi="500"
   inkscape:export-ydpi="500"><title
   id="title18">Recycle</title><metadata
   id="metadata17"><rdf:RDF><cc:Work
       rdf:about=""><dc:format>image/svg+xml</dc:format><dc:type
         rdf:resource="http://purl.org/dc/dcmitype/StillImage" /><dc:title>Recycle</dc:title><cc:license
         rdf:resource="http://creativecommons.org/licenses/by-sa/4.0/" /><dc:date>2020-09-04</dc:date><dc:creator><cc:Agent><dc:title>David García Garzón (vokimon)</dc:title></cc:Agent></dc:creator><dc:rights><cc:Agent><dc:title>@ David García Garzón, 2020 </dc:title></cc:Agent></dc:rights><dc:publisher><cc:Agent><dc:title>http://desconexionibex35.org</dc:title></cc:Agent></dc:publisher><dc:subject><rdf:Bag><rdf:li>recycle</rdf:li><rdf:li>paper</rdf:li><rdf:li>glass</rdf:li><rdf:li>packaging</rdf:li></rdf:Bag></dc:subject><dc:description>Standard recycle icon Gary Anderson in public domain, coloured to match the container colors in Spain: green for glass, blue for paper and yellow for packaging. Squared to be used as icon.</dc:description></cc:Work><cc:License
       rdf:about="http://creativecommons.org/licenses/by-sa/4.0/"><cc:permits
         rdf:resource="http://creativecommons.org/ns#Reproduction" /><cc:permits
         rdf:resource="http://creativecommons.org/ns#Distribution" /><cc:requires
         rdf:resource="http://creativecommons.org/ns#Notice" /><cc:requires
         rdf:resource="http://creativecommons.org/ns#Attribution" /><cc:permits
         rdf:resource="http://creativecommons.org/ns#DerivativeWorks" /><cc:requires
         rdf:resource="http://creativecommons.org/ns#ShareAlike" /></cc:License></rdf:RDF></metadata><defs
   id="defs15" /><sodipodi:namedview
   pagecolor="#ffffff"
   bordercolor="#666666"
   borderopacity="1"
   objecttolerance="10"
   gridtolerance="10"
   guidetolerance="10"
   inkscape:pageopacity="0"
   inkscape:pageshadow="2"
   inkscape:window-width="1680"
   inkscape:window-height="911"
   id="namedview13"
   showgrid="false"
   inkscape:zoom="0.84481787"
   inkscape:cx="122.51072"
   inkscape:cy="285.08963"
   inkscape:window-x="0"
   inkscape:window-y="29"
   inkscape:window-maximized="0"
   inkscape:current-layer="g4"
   inkscape:document-rotation="0" />
<g
   id="g10">
	<g
   id="g8">
		<g
   id="g6">
			<g
   id="g4">
				<path
   d="m 618.848,294.711 c 6.043,10.719 9.406,22.094 9.406,34.156 0,24.117 -15.422,49.57 -36.832,61.602 -10.062,5.391 -24.145,8.75 -38.172,8.75 h -44.242 l -79,-136.664 127.918,-73.008 z"
   id="path852"
   style="fill:#d4aa00" /><path
   d="m 554.59,415.273 c 20.07,0 36.832,-5.359 50.887,-16.055 l -83.07,144.648 c -6.699,11.375 -18.73,18.078 -32.789,18.078 h -78.395 v 51.57 L 336.219,488.28 411.223,363.014 v 52.258 H 554.59 Z"
   id="path850"
   style="fill:#ffcc00" /><path
   d="M 300.727,36.18 C 290.691,18.789 277.293,6.703 261.215,0 h 164.746 c 14.738,0 26.113,6.047 32.84,17.445 l 40.852,69.648 44.191,-26.141 -71.016,127.281 -145.305,-2.047 44.871,-25.43 z"
   id="path848"
   style="fill:#8080ff" /><path
   d="m 173.441,561.945 c -38.172,0 -69.645,-31.477 -69.645,-69.648 0,-10.719 4.703,-28.82 11.402,-40.195 l 21.41,-38.172 H 295.366 V 561.946 H 173.441 Z"
   id="path846"
   style="fill:#2ca05a" /><path
   d="m 164.09,40.227 c 12.715,-22.125 33.496,-34.18 58.926,-34.18 27.48,0 48.918,12.742 64.312,38.828 L 310.105,83.047 231.054,219.711 103.14,145.359 Z"
   id="path844"
   style="fill:#5555ff" /><path
   d="m 99.777,446.086 c -6.699,12.031 -12.031,30.133 -12.031,41.539 0,2.648 0,6.016 0.656,10.688 L 4.676,354.32 C 1.996,349.648 0,342.945 0,336.906 0,330.859 1.996,323.508 4.676,318.828 L 44.871,248.5 0,223.07 146.016,220.367 217,348.281 171.473,322.164 Z"
   id="path2"
   style="fill:#00d455" />
			</g>
		</g>
	</g>
</g>
</svg>
