<?xml version="1.0" encoding="UTF-8" standalone="no"?>
<!-- Created with Inkscape (http://www.inkscape.org/) -->

<svg
   xmlns:dc="http://purl.org/dc/elements/1.1/"
   xmlns:cc="http://creativecommons.org/ns#"
   xmlns:rdf="http://www.w3.org/1999/02/22-rdf-syntax-ns#"
   xmlns:svg="http://www.w3.org/2000/svg"
   xmlns="http://www.w3.org/2000/svg"
   xmlns:sodipodi="http://sodipodi.sourceforge.net/DTD/sodipodi-0.dtd"
   xmlns:inkscape="http://www.inkscape.org/namespaces/inkscape"
   width="161.60269"
   height="270.28"
   id="svg3964"
   version="1.1"
   inkscape:version="0.92.3 (2405546, 2018-03-11)"
   sodipodi:docname="spring.svg"
   viewBox="0 0 151.50252 253.3875"
   inkscape:export-filename="/home/cedrict/Desktop/FIELDSTONE/V2/fieldstone/images/pictograms/spring.png"
   inkscape:export-xdpi="249.67976"
   inkscape:export-ydpi="249.67976">
  <defs
     id="defs3966">
    <inkscape:path-effect
       effect="skeletal"
       id="path-effect5529"
       is_visible="true"
       pattern="M 0.49527115,0.49527115 H 31.510241 V 6.8882111 H 0.49527115 Z"
       copytype="repeated_stretched"
       prop_scale="1"
       scale_y_rel="false"
       spacing="0"
       normal_offset="0"
       tang_offset="0"
       prop_units="false"
       vertical_pattern="false"
       fuse_tolerance="0" />
  </defs>
  <sodipodi:namedview
     id="base"
     pagecolor="#ffffff"
     bordercolor="#666666"
     borderopacity="1.0"
     inkscape:pageopacity="0.0"
     inkscape:pageshadow="2"
     inkscape:zoom="6.2031876"
     inkscape:cx="82.658783"
     inkscape:cy="152.29051"
     inkscape:document-units="px"
     inkscape:current-layer="layer1"
     showgrid="false"
     fit-margin-top="10"
     fit-margin-left="10"
     fit-margin-right="10"
     fit-margin-bottom="10"
     inkscape:window-width="1883"
     inkscape:window-height="1025"
     inkscape:window-x="37"
     inkscape:window-y="27"
     inkscape:window-maximized="1" />
  <metadata
     id="metadata3969">
    <rdf:RDF>
      <cc:Work
         rdf:about="">
        <dc:format>image/svg+xml</dc:format>
        <dc:type
           rdf:resource="http://purl.org/dc/dcmitype/StillImage" />
        <dc:title />
      </cc:Work>
    </rdf:RDF>
  </metadata>
  <g
     inkscape:label="Layer 1"
     inkscape:groupmode="layer"
     id="layer1"
     transform="translate(-123.71624,-394.8125)">
    <rect
       style="opacity:1;fill:#000000;fill-opacity:1;stroke:#000000;stroke-width:4.40483189;stroke-linecap:round;stroke-linejoin:miter;stroke-miterlimit:4;stroke-dasharray:none;stroke-dashoffset:0;stroke-opacity:1"
       id="rect835"
       width="17.755415"
       height="50.385357"
       x="161.89742"
       y="484.65356"
       ry="0" />
    <flowRoot
       xml:space="preserve"
       id="flowRoot823"
       style="font-style:normal;font-variant:normal;font-weight:normal;font-stretch:normal;font-size:192px;line-height:125%;font-family:sans-serif;-inkscape-font-specification:'sans-serif, Normal';font-variant-ligatures:normal;font-variant-caps:normal;font-variant-numeric:normal;font-feature-settings:normal;text-align:start;letter-spacing:0px;word-spacing:0px;writing-mode:lr-tb;text-anchor:start;fill:#000000;fill-opacity:1;stroke:none;stroke-width:1px;stroke-linecap:butt;stroke-linejoin:miter;stroke-opacity:1"
       transform="matrix(0.93749999,0,0,0.93749999,123.71624,394.8125)"><flowRegion
         id="flowRegion825"><rect
           id="rect827"
           width="112.84521"
           height="205.7007"
           x="173.45921"
           y="36.206795" /></flowRegion><flowPara
         id="flowPara829">E</flowPara></flowRoot>    <text
       xml:space="preserve"
       style="font-style:normal;font-variant:normal;font-weight:normal;font-stretch:normal;font-size:75px;line-height:125%;font-family:sans-serif;-inkscape-font-specification:'sans-serif, Normal';font-variant-ligatures:normal;font-variant-caps:normal;font-variant-numeric:normal;font-feature-settings:normal;text-align:start;letter-spacing:0px;word-spacing:0px;writing-mode:lr-tb;text-anchor:start;fill:#000000;fill-opacity:1;stroke:none;stroke-width:0.9375px;stroke-linecap:butt;stroke-linejoin:miter;stroke-opacity:1"
       x="172.6264"
       y="537.18848"
       id="text833"><tspan
         sodipodi:role="line"
         id="tspan831"
         x="172.6264"
         y="537.18848"
         style="font-style:normal;font-variant:normal;font-weight:normal;font-stretch:normal;font-size:75px;font-family:sans-serif;-inkscape-font-specification:'sans-serif, Normal';font-variant-ligatures:normal;font-variant-caps:normal;font-variant-numeric:normal;font-feature-settings:normal;text-align:start;writing-mode:lr-tb;text-anchor:start;stroke-width:0.9375px">E</tspan></text>
    <path
       style="fill:#ddda34;fill-opacity:1;stroke:#000000;stroke-width:0.34959304;stroke-linecap:round;stroke-linejoin:round;stroke-miterlimit:10;stroke-opacity:1"
       d="m 165.92905,519.35576 c -0.10199,0.0486 -0.20471,0.0952 -0.3059,0.14748 -0.98994,0.51462 -1.87708,1.22771 -2.58917,2.0921 -0.40321,0.45427 -0.6198,0.99006 -0.72103,1.50216 -0.0503,0.21079 -0.0824,0.4325 -0.0929,0.65549 -0.0206,0.43943 0.0435,0.89044 0.21849,1.32736 0.35439,0.78855 0.88075,1.50624 1.55678,2.07024 0.5587,0.45448 1.15874,0.78503 1.70973,1.1034 0.016,0.008 0.0276,0.0142 0.0437,0.0218 1.69521,0.81134 3.50007,1.32797 5.34222,1.60594 1.83829,0.27739 3.71335,0.31921 5.55525,0.18572 0.004,-3.5e-4 0.0126,3.5e-4 0.0164,0 1.13259,-0.13004 2.28613,-0.28454 3.43038,-0.60086 0.69298,-0.19515 1.37014,-0.45754 2.01562,-0.78658 0.50713,-0.25852 0.9996,-0.55761 1.45846,-0.9013 0.27025,-0.24613 0.57627,-0.53762 0.84121,-0.9286 0.33201,-0.55259 0.46486,-1.18545 0.41514,-1.79713 -0.12187,-0.4841 -0.33818,-0.95638 -0.64456,-1.37106 -0.10974,-0.14853 -0.22643,-0.28841 -0.36052,-0.42061 -0.40412,-0.36637 -0.82956,-0.60583 -1.17441,-0.84121 -1.13246,-0.59796 -2.34338,-1.02923 -3.58333,-1.30551 -0.3324,-0.0741 -0.664,-0.13307 -0.99962,-0.18572 -1.51611,-0.23318 -3.04348,-0.26802 -4.5447,-0.22942 0.009,0.37237 0.0181,0.74196 0.0273,1.11433 1.46688,-0.0351 2.92466,-0.003 4.3426,0.21849 0.30877,0.0472 0.6184,0.10295 0.92314,0.16934 1.13677,0.24764 2.23775,0.62997 3.25559,1.16895 0.38343,0.26951 0.74662,0.4646 0.98869,0.70465 0.0865,0.0748 0.16308,0.15922 0.23488,0.25127 0.20049,0.25699 0.3459,0.57342 0.43699,0.90676 0.0215,0.36736 -0.0581,0.7427 -0.25673,1.016 -0.12744,0.21977 -0.36336,0.42149 -0.62271,0.67187 -0.39592,0.29794 -0.82154,0.5622 -1.26728,0.78659 -0.56733,0.28561 -1.16886,0.51226 -1.78619,0.6828 -1.03326,0.29138 -2.12614,0.43163 -3.23921,0.56262 -0.004,5.3e-4 -0.007,-5.2e-4 -0.0109,0 -1.76238,0.125 -3.54268,0.0926 -5.27667,-0.16387 -1.73763,-0.25701 -3.42679,-0.73582 -4.99263,-1.49669 -0.0149,-0.007 -0.0288,-0.0145 -0.0437,-0.0218 -0.5563,-0.32759 -1.09487,-0.61519 -1.524,-0.97777 -0.53204,-0.43521 -0.94979,-1.01454 -1.23997,-1.6551 -0.11014,-0.24271 -0.1442,-0.53043 -0.12563,-0.83028 0.009,-0.15216 0.0335,-0.31028 0.0656,-0.4643 0.10577,-0.40459 0.24163,-0.77915 0.47523,-1.01601 0.61847,-0.75306 1.39471,-1.37533 2.26142,-1.8299 0.0876,-0.0462 0.17783,-0.0933 0.26767,-0.13656 l -0.4807,-1.00508 z"
       id="path5744"
       inkscape:connector-curvature="0" />
    <path
       style="fill:#ddda34;fill-opacity:1;stroke:#000000;stroke-width:0.34959304;stroke-linecap:round;stroke-linejoin:round;stroke-miterlimit:10;stroke-opacity:1"
       d="m 163.97897,517.49308 c -0.0238,0.0193 -0.0474,0.0403 -0.071,0.0601 -0.65805,0.56499 -1.16204,1.2811 -1.49123,2.06478 -0.25277,0.66083 -0.25207,1.36181 -0.0874,1.98831 0.11742,0.50318 0.34274,1.01426 0.71558,1.453 0.006,0.007 0.0102,0.0147 0.0164,0.0218 0.77035,0.90149 1.72229,1.63331 2.78036,2.15764 0.66402,0.32651 1.34587,0.57695 2.02108,0.79751 0.28039,0.0916 0.5648,0.1763 0.84121,0.26219 1.51368,0.38169 3.06372,0.62389 4.62664,0.71012 1.85885,0.10254 3.72892,-0.0132 5.55525,-0.38237 0.57895,-0.11704 1.15778,-0.26322 1.72612,-0.43153 0.61729,-0.23527 1.2832,-0.45869 1.93915,-0.8139 0.5487,-0.30049 1.04275,-0.69396 1.45846,-1.15802 0.15648,-0.17469 0.30377,-0.35806 0.43699,-0.55171 0.33463,-0.46246 0.42374,-0.97474 0.38783,-1.39836 0.0192,-0.42049 -0.08,-0.91968 -0.41515,-1.37107 -0.53168,-0.72828 -1.23246,-1.32598 -2.032,-1.7425 -0.0409,-0.021 -0.0792,-0.0399 -0.12018,-0.0601 -0.65825,-0.32387 -1.33105,-0.53972 -1.95553,-0.75928 -1.13484,-0.31144 -2.29108,-0.52031 -3.45769,-0.63909 -1.85099,-0.18848 -3.72391,-0.14363 -5.56618,0.12017 -1.01025,0.14466 -2.0111,0.35686 -2.99339,0.62817 -0.77781,0.26174 -1.58185,0.53345 -2.36522,0.90676 l 0.48069,1.00508 c 0.69002,-0.33201 1.4412,-0.58353 2.21227,-0.84667 0.93152,-0.25816 1.88345,-0.45717 2.84045,-0.5954 1.74515,-0.25208 3.51466,-0.29797 5.26028,-0.12017 1.1002,0.11206 2.19044,0.3105 3.25558,0.60632 0.63718,0.2284 1.25232,0.42193 1.79167,0.69373 0.0335,0.0169 0.0654,0.0316 0.0983,0.0492 0.65313,0.34323 1.23212,0.84008 1.66603,1.43661 0.12896,0.11649 0.15418,0.3973 0.18572,0.71011 -0.0234,0.31542 -0.0414,0.59603 -0.16933,0.71011 -0.10803,0.1574 -0.22781,0.30525 -0.35506,0.44791 -0.33804,0.37902 -0.73731,0.70521 -1.17988,0.95046 -0.51934,0.29186 -1.12954,0.49078 -1.76435,0.73742 -0.53171,0.15962 -1.07334,0.29358 -1.61687,0.40422 -1.7146,0.34901 -3.47928,0.46042 -5.23843,0.36052 -1.47909,-0.084 -2.95339,-0.31948 -4.39176,-0.6828 -0.27376,-0.0863 -0.54569,-0.16922 -0.8139,-0.25674 -0.64586,-0.21073 -1.27233,-0.43582 -1.85175,-0.7265 -0.92857,-0.46171 -1.76713,-1.10417 -2.43623,-1.88998 -0.004,-0.004 -0.007,-0.0123 -0.0109,-0.0164 -0.2286,-0.25345 -0.3749,-0.61285 -0.48069,-0.99962 -0.10575,-0.45172 -0.11658,-0.91792 0.0437,-1.28912 0.26838,-0.63297 0.66714,-1.21257 1.17987,-1.64418 0.0179,-0.0155 0.0364,-0.0284 0.0546,-0.0437 l -0.71011,-0.86306 z"
       id="path5728"
       inkscape:connector-curvature="0" />
    <path
       style="fill:#ddda34;fill-opacity:1;stroke:#000000;stroke-width:0.34959304;stroke-linecap:round;stroke-linejoin:round;stroke-miterlimit:10;stroke-opacity:1"
       d="m 166.96144,512.6971 c -0.0314,0.0121 -0.0615,0.0259 -0.0929,0.0383 -1.24111,0.49424 -2.40361,1.21004 -3.38668,2.13033 -0.36623,0.37786 -0.69478,0.81584 -0.93408,1.32736 -0.0172,0.0386 -0.0334,0.0756 -0.0492,0.11471 -0.26403,0.65469 -0.33557,1.3809 -0.20758,2.07571 0.21674,0.75319 0.59716,1.46624 1.15257,2.05386 0.42956,0.43442 0.9005,0.76285 1.3219,1.07063 0.0169,0.0123 0.0324,0.0205 0.0492,0.0327 1.51185,0.9064 3.17798,1.54058 4.88884,1.91183 0.10435,0.0224 0.20681,0.045 0.31136,0.0656 1.51991,0.29862 3.05901,0.40895 4.58294,0.43699 0.31382,-0.006 0.62928,-0.0138 0.945,-0.0273 1.07268,-0.0459 2.15304,-0.14322 3.22827,-0.34959 0.77785,-0.15254 1.54941,-0.36611 2.2942,-0.65003 0.66067,-0.25184 1.29948,-0.56077 1.91184,-0.92314 0.29927,-0.22809 0.6725,-0.46976 1.02693,-0.83029 0.44609,-0.49625 0.71935,-1.10091 0.83028,-1.72065 0.009,-0.26247 -0.0183,-0.53149 -0.0765,-0.79204 -0.076,-0.34011 -0.20645,-0.66885 -0.40422,-0.97231 -0.27815,-0.38133 -0.59878,-0.65858 -0.86306,-0.89583 -1.0155,-0.7394 -2.15713,-1.27332 -3.34844,-1.61687 -0.0513,-0.0148 -0.1069,-0.0241 -0.15841,-0.0383 -1.15981,-0.31149 -2.33137,-0.46568 -3.47955,-0.58994 -0.62753,-0.0407 -1.25747,-0.0564 -1.88998,-0.0546 -1.8611,0.005 -3.73354,0.20084 -5.53886,0.66094 -1.20934,0.30822 -2.38876,0.73398 -3.51779,1.29459 -0.50444,0.30624 -1.05718,0.6202 -1.57863,1.04332 l 0.71011,0.86306 c 0.40087,-0.33564 0.89456,-0.61012 1.4093,-0.92861 1.04018,-0.52495 2.13955,-0.92101 3.27197,-1.20719 1.6905,-0.42721 3.46013,-0.60885 5.23297,-0.61179 0.60252,-0.001 1.20198,0.0166 1.80259,0.0546 1.12761,0.1252 2.23852,0.26413 3.28836,0.5517 0.046,0.0123 0.0908,0.0253 0.13656,0.0383 1.06282,0.30021 2.07734,0.76184 2.95515,1.40384 0.26798,0.25396 0.51038,0.4523 0.64457,0.66641 0.11714,0.15127 0.19954,0.33611 0.24581,0.53531 0.0354,0.15262 0.051,0.31407 0.0492,0.47523 -0.0834,0.41419 -0.25328,0.8078 -0.52985,1.07609 -0.19636,0.22217 -0.51248,0.41388 -0.84667,0.67734 -0.54341,0.32259 -1.11429,0.5902 -1.70973,0.81389 -0.67125,0.25218 -1.37212,0.44345 -2.08117,0.57902 -0.99285,0.19432 -2.01446,0.28327 -3.04801,0.32774 -0.30421,0.0131 -0.60618,0.0258 -0.91222,0.0327 -1.47661,-0.0297 -2.9469,-0.1379 -4.36992,-0.4206 -0.0979,-0.0194 -0.19205,-0.0389 -0.28951,-0.0601 -1.5859,-0.33898 -3.12113,-0.9137 -4.501,-1.74251 -0.0171,-0.0129 -0.0375,-0.0255 -0.0546,-0.0383 -0.4263,-0.31772 -0.82856,-0.5949 -1.13071,-0.91768 -0.41132,-0.41278 -0.70131,-0.95802 -0.87398,-1.5404 -0.0861,-0.46249 -0.0329,-0.95514 0.15294,-1.38744 0.0111,-0.0258 0.0207,-0.0511 0.0328,-0.0765 0.15708,-0.3574 0.41021,-0.68782 0.70465,-0.99963 0.86353,-0.81148 1.89798,-1.44449 3.00977,-1.88452 0.0283,-0.0113 0.0591,-0.0217 0.0874,-0.0328 z"
       id="path5710"
       inkscape:connector-curvature="0" />
    <path
       style="fill:#ddda34;fill-opacity:1;stroke:#000000;stroke-width:0.34959304;stroke-linecap:round;stroke-linejoin:round;stroke-miterlimit:10;stroke-opacity:1"
       d="m 164.93489,510.61047 c -0.15252,0.0916 -0.30371,0.19098 -0.45338,0.29497 -0.76863,0.54099 -1.40689,1.24956 -1.86814,2.05932 -0.32782,0.54773 -0.41699,1.14463 -0.38783,1.6715 -0.006,0.34639 0.0403,0.7221 0.1748,1.09247 0.0659,0.1814 0.15518,0.36119 0.26766,0.53532 0.4909,0.81276 1.15306,1.51892 1.94461,2.05386 0.6777,0.45307 1.39429,0.77792 2.06478,1.09247 0.0365,0.0142 0.0727,0.0242 0.10925,0.0383 1.74479,0.66888 3.56777,1.0846 5.41869,1.27273 1.85092,0.18813 3.7298,0.1514 5.57164,-0.0929 0.22259,-0.0295 0.44491,-0.0629 0.66642,-0.0983 0.90627,-0.19317 1.844,-0.38955 2.76943,-0.73196 0.66542,-0.24702 1.30142,-0.57702 1.88452,-0.9887 0.30514,-0.21542 0.5963,-0.45648 0.86852,-0.71557 0.38262,-0.34012 0.62062,-0.76609 0.74289,-1.18533 0.18489,-0.55557 0.18445,-1.18946 -0.0656,-1.78075 -0.33021,-0.62336 -0.79067,-1.18029 -1.36013,-1.6114 -0.0677,-0.0512 -0.13694,-0.0999 -0.20758,-0.14748 -0.55474,-0.36032 -1.12972,-0.59566 -1.63871,-0.83575 -1.12882,-0.41692 -2.29058,-0.70511 -3.46862,-0.89037 -1.84054,-0.28945 -3.71747,-0.32196 -5.57164,-0.15295 -0.70693,0.0645 -1.41262,0.16061 -2.10849,0.27858 -1.1039,0.24047 -2.22871,0.50586 -3.32659,0.92861 l 0.40422,1.04332 c 0.99044,-0.38685 2.05088,-0.63425 3.13541,-0.87398 0.66544,-0.11201 1.33756,-0.20531 2.01016,-0.26766 1.76412,-0.16354 3.5421,-0.14257 5.26574,0.12563 1.10322,0.17166 2.18529,0.44338 3.22828,0.83575 0.53407,0.25748 1.03921,0.45892 1.44753,0.73742 0.0525,0.034 0.10795,0.072 0.15841,0.10925 0.42467,0.31319 0.77385,0.738 1.02693,1.21265 0.12972,0.25929 0.10927,0.61494 0.005,0.94499 -0.10957,0.29194 -0.2399,0.55897 -0.42607,0.70465 -0.23283,0.2231 -0.48363,0.42475 -0.74834,0.61179 -0.50585,0.35742 -1.06528,0.64797 -1.64964,0.86852 -0.80645,0.30551 -1.68227,0.48695 -2.58371,0.6828 -0.2106,0.0337 -0.42212,0.0647 -0.63364,0.0929 -1.75033,0.23305 -3.52721,0.27396 -5.27667,0.0983 -1.74946,-0.17564 -3.4685,-0.56905 -5.10187,-1.20173 -0.0342,-0.0133 -0.0696,-0.0247 -0.10379,-0.0383 -0.67295,-0.32074 -1.32629,-0.60846 -1.87906,-0.98869 -0.65919,-0.44752 -1.2181,-1.05017 -1.63326,-1.73704 -0.0613,-0.0789 -0.10654,-0.17177 -0.14202,-0.27858 -0.0725,-0.21808 -0.10149,-0.48453 -0.12017,-0.76474 0.01,-0.422 0.0421,-0.81776 0.22396,-1.07063 0.38788,-0.67983 0.92361,-1.27974 1.55678,-1.72611 0.12067,-0.0864 0.24653,-0.16734 0.3769,-0.24581 l -0.56809,-0.96138 z"
       id="path5690"
       inkscape:connector-curvature="0" />
    <path
       style="fill:#ddda34;fill-opacity:1;stroke:#000000;stroke-width:0.34959304;stroke-linecap:round;stroke-linejoin:round;stroke-miterlimit:10;stroke-opacity:1"
       d="m 168.01568,506.12585 c -1.33878,0.42982 -2.61922,1.04886 -3.77451,1.86814 -0.34717,0.30039 -0.74396,0.62573 -1.09795,1.04331 -0.0282,0.0333 -0.0542,0.0638 -0.0819,0.0983 -0.47494,0.63188 -0.74556,1.37846 -0.8412,2.13033 -0.003,0.72829 0.17665,1.47074 0.56262,2.1194 0.30431,0.47621 0.67142,0.84679 1.01601,1.17988 0.0134,0.0111 0.0303,0.0218 0.0437,0.0327 1.08913,0.89382 2.33582,1.57616 3.65434,2.03746 0.47581,0.16444 0.95456,0.30108 1.43661,0.42061 0.76125,0.18876 1.53108,0.3307 2.28874,0.45884 1.06442,0.13464 2.14562,0.2156 3.22827,0.22396 1.86635,0.0144 3.73692,-0.18425 5.53887,-0.6828 0.65144,-0.18023 1.29309,-0.39817 1.92276,-0.66095 0.43859,-0.24021 0.94699,-0.47759 1.44207,-0.83575 0.59761,-0.45414 1.05456,-1.05689 1.34921,-1.72611 0.003,-0.007 0.008,-0.0153 0.0109,-0.0218 0.19069,-0.60164 0.14918,-1.23696 -0.0819,-1.79712 -0.17104,-0.41029 -0.43111,-0.78363 -0.77019,-1.08702 -0.77755,-0.69195 -1.68296,-1.22829 -2.6438,-1.59502 -0.0736,-0.0281 -0.1443,-0.0504 -0.2185,-0.0765 -0.95651,-0.33464 -1.9323,-0.52921 -2.87321,-0.71012 -0.79396,-0.11419 -1.59432,-0.19094 -2.39799,-0.22941 -1.85851,-0.089 -3.73005,0.0334 -5.55525,0.39328 -1.26449,0.24935 -2.50337,0.61364 -3.70351,1.10341 -0.49718,0.24357 -1.0218,0.48921 -1.53493,0.79751 l 0.56809,0.96138 c 0.43862,-0.26399 0.92547,-0.49379 1.42569,-0.74289 1.12068,-0.46264 2.28298,-0.80387 3.47407,-1.03785 1.71928,-0.33774 3.49507,-0.4472 5.26029,-0.36052 0.76333,0.0375 1.52183,0.10988 2.27782,0.2185 0.93141,0.18258 1.8403,0.35449 2.68203,0.65549 0.0653,0.0231 0.13198,0.0517 0.19665,0.0765 0.84465,0.32347 1.63578,0.78149 2.29966,1.37652 0.20677,0.18316 0.37348,0.42461 0.48615,0.68826 0.1356,0.31088 0.16927,0.67589 0.0656,0.97231 -0.002,0.005 -0.009,0.006 -0.0109,0.0109 -0.2201,0.49165 -0.55005,0.93221 -0.97231,1.2345 -0.34202,0.26273 -0.78877,0.46157 -1.26182,0.7265 -0.57665,0.24564 -1.17216,0.45012 -1.77527,0.61725 -1.66828,0.4623 -3.42075,0.63703 -5.18927,0.61725 -1.02591,-0.0115 -2.05559,-0.0857 -3.07533,-0.21304 -0.74125,-0.12735 -1.47641,-0.26596 -2.19042,-0.44245 -0.45213,-0.11176 -0.89929,-0.23576 -1.33282,-0.38783 -1.19201,-0.41248 -2.31296,-1.01981 -3.27743,-1.81351 -0.0119,-0.01 -0.0264,-0.0175 -0.0383,-0.0273 -0.32492,-0.32568 -0.62464,-0.62207 -0.81389,-0.94499 -0.2709,-0.41486 -0.40032,-0.93673 -0.40422,-1.45846 0.0789,-0.56137 0.27915,-1.099 0.61725,-1.51308 0.0179,-0.0241 0.0355,-0.0473 0.0546,-0.071 0.24061,-0.29718 0.57595,-0.56494 0.92861,-0.87944 1.03779,-0.73759 2.20596,-1.30029 3.43038,-1.68787 z"
       id="path5672"
       inkscape:connector-curvature="0" />
    <path
       style="fill:#ddda34;fill-opacity:1;stroke:#000000;stroke-width:0.34959304;stroke-linecap:round;stroke-linejoin:round;stroke-miterlimit:10;stroke-opacity:1"
       d="m 165.93997,503.85896 c -0.29813,0.14029 -0.59288,0.2963 -0.8849,0.46976 -0.88556,0.53033 -1.65466,1.24675 -2.24505,2.0921 -0.37027,0.49546 -0.5244,1.05324 -0.56262,1.56224 -0.0116,0.0862 -0.0166,0.17863 -0.0218,0.26766 -0.029,0.49676 0.044,1.03101 0.29497,1.53493 0.39075,0.76587 0.94371,1.44957 1.6278,1.98831 0.52635,0.40719 1.08236,0.71651 1.6114,1.00508 0.0484,0.0264 0.0996,0.0503 0.14748,0.0765 1.65319,0.76232 3.40397,1.25395 5.18928,1.52401 1.84088,0.27847 3.71757,0.32252 5.56617,0.18026 0.14523,-0.0112 0.29216,-0.0248 0.43699,-0.0383 1.07679,-0.14885 2.17625,-0.31568 3.26651,-0.63911 0.59763,-0.17994 1.18373,-0.41309 1.74251,-0.69918 0.54359,-0.27831 1.06231,-0.60233 1.54585,-0.98323 0.29225,-0.26311 0.59455,-0.58388 0.83575,-0.98869 0.30531,-0.57122 0.399,-1.22015 0.29497,-1.84083 -0.1379,-0.41744 -0.33922,-0.81947 -0.60633,-1.17987 -0.15766,-0.21273 -0.33856,-0.41068 -0.54078,-0.58994 -0.43786,-0.36169 -0.89296,-0.59837 -1.27273,-0.83575 -1.05522,-0.51011 -2.1629,-0.88624 -3.29929,-1.14164 -0.50104,-0.1126 -1.01081,-0.2065 -1.51854,-0.27312 -1.3511,-0.17302 -2.70571,-0.1956 -4.04764,-0.14202 -0.24646,0.01 -0.49199,0.0236 -0.73741,0.0383 -1.42134,0.1377 -2.85652,0.33624 -4.26613,0.73197 -0.15996,0.0455 -0.32219,0.0966 -0.48069,0.14748 l 0.34413,1.05971 c 0.14496,-0.0459 0.29052,-0.09 0.43699,-0.1311 1.30277,-0.37076 2.66924,-0.55671 4.05309,-0.69373 0.23781,-0.0138 0.47806,-0.0289 0.71557,-0.0383 1.29313,-0.0509 2.57745,-0.0287 3.84007,0.13656 0.46969,0.0599 0.93699,0.14413 1.39837,0.24581 1.04642,0.2306 2.06384,0.56871 3.0207,1.03239 0.41646,0.26716 0.81252,0.46629 1.09248,0.71557 0.13524,0.10796 0.25287,0.2306 0.36052,0.37145 0.18237,0.23861 0.3242,0.5199 0.42606,0.81389 0.0552,0.35589 -0.002,0.73242 -0.18572,1.02147 -0.12198,0.23428 -0.34242,0.45237 -0.58993,0.68826 -0.4156,0.32932 -0.86674,0.61594 -1.34376,0.8576 -0.49033,0.2484 -1.0043,0.44828 -1.53493,0.60632 -0.97774,0.29607 -2.01955,0.45084 -3.08078,0.60086 -0.13846,0.0127 -0.27643,0.0222 -0.41514,0.0327 -1.76577,0.13454 -3.551,0.10005 -5.2876,-0.15841 -1.68417,-0.25066 -3.32418,-0.70885 -4.85607,-1.42568 -0.0479,-0.0266 -0.0945,-0.0557 -0.14202,-0.0819 -0.51944,-0.28674 -1.01757,-0.55421 -1.43114,-0.8849 -0.55021,-0.43022 -0.99855,-0.99637 -1.3219,-1.62779 -0.1482,-0.25436 -0.18374,-0.59642 -0.16934,-0.96139 0.003,-0.0654 0.0111,-0.13024 0.0164,-0.19664 0.0634,-0.411 0.14148,-0.79544 0.34413,-1.02693 0.5056,-0.72499 1.16678,-1.3413 1.92276,-1.79713 0.24541,-0.1494 0.50668,-0.28374 0.77567,-0.40968 l -0.46431,-1.016 z"
       id="path5652"
       inkscape:connector-curvature="0" />
    <path
       style="fill:#ddda34;fill-opacity:1;stroke:#000000;stroke-width:0.34959304;stroke-linecap:round;stroke-linejoin:round;stroke-miterlimit:10;stroke-opacity:1"
       d="m 164.00082,501.99082 c -0.15439,0.12281 -0.30429,0.25473 -0.45337,0.39875 -0.57706,0.57992 -0.98946,1.29068 -1.22904,2.0484 -0.17021,0.72492 -0.10479,1.48496 0.16933,2.16311 0.13825,0.33418 0.32102,0.64893 0.53531,0.93406 0.11409,0.1518 0.23949,0.29628 0.37144,0.43154 0.89588,0.88714 1.9583,1.58806 3.10811,2.08117 0.44884,0.19091 0.90399,0.34874 1.36013,0.49161 0.60133,0.18835 1.20743,0.34766 1.80259,0.49708 1.20602,0.24126 2.43575,0.40193 3.67073,0.46977 1.86088,0.10221 3.72984,-0.0111 5.55525,-0.38784 0.80858,-0.1669 1.60814,-0.38553 2.39253,-0.66095 0.52399,-0.24158 1.11491,-0.47324 1.68787,-0.83028 0.39863,-0.25499 0.75458,-0.56817 1.05971,-0.92315 0.21388,-0.2488 0.40195,-0.51743 0.56263,-0.80296 0.27721,-0.53317 0.30692,-1.10175 0.19118,-1.58956 -0.0557,-0.39967 -0.23278,-0.85026 -0.60633,-1.22904 -0.54205,-0.607 -1.19128,-1.10531 -1.90637,-1.48031 -0.13671,-0.0717 -0.27404,-0.13964 -0.41514,-0.20211 -0.78947,-0.34841 -1.59427,-0.56565 -2.35976,-0.78112 -0.87373,-0.19234 -1.75939,-0.33191 -2.64926,-0.4206 -1.85136,-0.18452 -3.72513,-0.14603 -5.56617,0.12017 -1.31883,0.19069 -2.6179,0.49996 -3.88376,0.92314 -0.47586,0.1929 -0.97005,0.38742 -1.45846,0.61726 l 0.4643,1.016 c 0.44067,-0.20632 0.90697,-0.38904 1.38199,-0.58448 1.19345,-0.40174 2.42402,-0.6933 3.67073,-0.87398 1.74035,-0.25222 3.50903,-0.29094 5.26028,-0.11471 0.84174,0.0847 1.68149,0.221 2.50724,0.40422 0.76759,0.22011 1.50847,0.41368 2.17403,0.71557 0.12079,0.0546 0.24349,0.11259 0.36052,0.1748 0.61211,0.32538 1.16621,0.75392 1.62232,1.26727 0.14617,0.10852 0.21999,0.37334 0.3059,0.67188 0.0484,0.32125 0.0632,0.63366 -0.0656,0.81936 -0.12517,0.22212 -0.27167,0.42967 -0.43699,0.62271 -0.23585,0.2754 -0.51112,0.51911 -0.8139,0.71011 -0.42777,0.2793 -0.95659,0.47824 -1.50762,0.73743 -0.72767,0.25977 -1.47265,0.46652 -2.22865,0.62271 -1.70671,0.3526 -3.4697,0.45097 -5.23297,0.34959 -1.1702,-0.0673 -2.33994,-0.22369 -3.49047,-0.45338 -0.58565,-0.14909 -1.16529,-0.29486 -1.72611,-0.46977 -0.42542,-0.13267 -0.83968,-0.2802 -1.23997,-0.45338 -1.02552,-0.43961 -1.97426,-1.06087 -2.75851,-1.84082 -0.0983,-0.10165 -0.18859,-0.20986 -0.27312,-0.32228 -0.15876,-0.21117 -0.29054,-0.43745 -0.38783,-0.67734 -0.19059,-0.45452 -0.24565,-0.97627 -0.1311,-1.44207 0.19154,-0.59199 0.50274,-1.14135 0.93408,-1.55678 0.10669,-0.10845 0.22834,-0.2112 0.35505,-0.31136 z"
       id="path5634"
       inkscape:connector-curvature="0" />
    <path
       style="fill:#ddda34;fill-opacity:1;stroke:#000000;stroke-width:0.34959304;stroke-linecap:round;stroke-linejoin:round;stroke-miterlimit:10;stroke-opacity:1"
       d="m 166.97783,497.21122 c -0.56545,0.2205 -1.13812,0.46962 -1.69334,0.78113 -0.9228,0.52078 -1.73796,1.22832 -2.37614,2.07571 -0.19455,0.23625 -0.33475,0.48906 -0.43699,0.74834 -0.10501,0.26629 -0.1699,0.53879 -0.20212,0.79751 -0.10764,0.59581 -0.0689,1.26483 0.2185,1.88999 0.36772,0.75986 0.89357,1.44585 1.55678,1.98831 0.24102,0.1932 0.48852,0.36195 0.73742,0.51893 0.32297,0.20368 0.65022,0.38645 0.96139,0.56262 1.35959,0.65105 2.78673,1.10871 4.24973,1.4093 1.82397,0.37476 3.69903,0.50481 5.55526,0.44245 0.37378,-0.0125 0.74817,-0.0327 1.11979,-0.0601 1.1291,-0.1302 2.28402,-0.28574 3.42492,-0.60086 0.32488,-0.0914 0.64488,-0.19629 0.96138,-0.31682 0.8806,-0.33535 1.7219,-0.78612 2.48538,-1.35467 0.26876,-0.24257 0.58283,-0.52472 0.85214,-0.91222 0.3388,-0.54472 0.47509,-1.17733 0.43153,-1.7862 -0.0173,-0.0832 -0.037,-0.16348 -0.0601,-0.24581 -0.14228,-0.50786 -0.39321,-0.9946 -0.76474,-1.40384 -0.34475,-0.34973 -0.70882,-0.59034 -1.00508,-0.81389 -0.89278,-0.53288 -1.85326,-0.94268 -2.84044,-1.23996 -0.42008,-0.12651 -0.84429,-0.23018 -1.27274,-0.31682 -1.36016,-0.26969 -2.73115,-0.35961 -4.08041,-0.39876 -0.0607,5.2e-4 -0.11949,-6.5e-4 -0.18025,0 -1.57683,0.0224 -3.17151,0.1429 -4.74136,0.46431 -0.26381,0.0547 -0.52527,0.11335 -0.78659,0.18025 -1.43739,0.36799 -2.83353,0.92266 -4.1241,1.67149 -0.30785,0.2151 -0.639,0.43842 -0.96685,0.69919 l 0.68281,0.87945 c 0.26905,-0.21269 0.57497,-0.4138 0.89036,-0.63911 1.1808,-0.6865 2.46858,-1.1923 3.80183,-1.52946 0.24238,-0.0613 0.4869,-0.11917 0.73196,-0.16934 1.4678,-0.30482 2.98144,-0.41324 4.50647,-0.43699 0.0588,-6.5e-4 0.116,-0.005 0.1748,-0.005 1.31605,0.041 2.61832,0.12337 3.87283,0.37691 0.39038,0.0772 0.77753,0.17163 1.15803,0.28404 0.89419,0.26417 1.75394,0.62929 2.54548,1.10341 0.32453,0.25336 0.62498,0.44307 0.81936,0.66094 0.23166,0.22583 0.39342,0.53269 0.49161,0.86852 0.0159,0.0544 0.031,0.10826 0.0437,0.16387 0.019,0.36847 -0.0618,0.74313 -0.2622,1.01601 -0.12986,0.21785 -0.37109,0.42098 -0.63363,0.67188 -0.65874,0.49288 -1.39354,0.88249 -2.17404,1.17441 -0.28051,0.10491 -0.56808,0.19866 -0.85759,0.27858 -1.03039,0.29026 -2.11848,0.43144 -3.22828,0.56263 -0.35562,0.0256 -0.71383,0.0426 -1.07062,0.0546 -1.77185,0.0595 -3.55074,-0.0505 -5.26575,-0.39875 -1.37562,-0.27937 -2.70929,-0.71095 -3.96569,-1.3219 -0.31104,-0.17934 -0.61774,-0.34699 -0.9013,-0.52439 -0.21853,-0.13672 -0.42448,-0.28155 -0.61178,-0.43699 -0.52818,-0.42727 -0.95366,-0.98912 -1.25636,-1.61141 -0.17456,-0.32798 -0.18023,-0.77355 -0.12017,-1.22357 0.0427,-0.20877 0.0937,-0.40732 0.15841,-0.58448 0.063,-0.1725 0.13863,-0.32466 0.24581,-0.43699 0.55109,-0.73317 1.26133,-1.34794 2.05932,-1.80259 0.4731,-0.27141 0.98682,-0.49015 1.52401,-0.69919 l -0.38237,-1.05423 z"
       id="path5616"
       inkscape:connector-curvature="0" />
    <path
       style="fill:#ddda34;fill-opacity:1;stroke:#000000;stroke-width:0.34959304;stroke-linecap:round;stroke-linejoin:round;stroke-miterlimit:10;stroke-opacity:1"
       d="m 164.93489,495.1246 c -0.4215,0.28017 -0.87794,0.57996 -1.30005,0.9723 -0.59889,0.57731 -1.03194,1.29337 -1.29458,2.05932 -0.18552,0.6918 -0.14254,1.41998 0.0874,2.07571 0.009,0.0244 0.0183,0.0468 0.0273,0.071 0.19341,0.51446 0.48665,0.99268 0.87399,1.39291 0.84671,0.86717 1.86298,1.56048 2.96061,2.05386 0.17032,0.076 0.34151,0.14537 0.51346,0.21303 0.82769,0.32567 1.67054,0.56486 2.49631,0.78659 0.96228,0.21297 1.93805,0.36949 2.92239,0.46976 1.85218,0.18868 3.73009,0.16833 5.57163,-0.10378 1.04565,-0.15452 2.07879,-0.38666 3.09172,-0.71011 0.58069,-0.23595 1.21499,-0.46408 1.83536,-0.81936 0.13952,-0.0811 0.27333,-0.16878 0.40422,-0.2622 0.54583,-0.38958 1.01479,-0.8845 1.37652,-1.44753 0.33168,-0.50727 0.39308,-1.06179 0.31682,-1.52401 -0.0109,-0.41389 -0.1461,-0.90823 -0.52985,-1.33282 -0.3024,-0.3702 -0.65048,-0.70392 -1.02693,-0.99416 -0.36323,-0.28004 -0.75429,-0.51946 -1.16896,-0.71557 -0.75086,-0.35365 -1.51413,-0.57087 -2.23411,-0.79751 -0.62694,-0.15148 -1.26387,-0.27521 -1.90092,-0.37145 -1.84027,-0.27798 -3.71414,-0.32907 -5.56617,-0.15294 -1.57416,0.1497 -3.1324,0.46316 -4.64303,0.93407 -0.25504,0.0953 -0.51031,0.18816 -0.7702,0.2895 l 0.38237,1.05425 c 0.2469,-0.0961 0.50037,-0.19343 0.75381,-0.28951 1.42688,-0.44772 2.90288,-0.74237 4.39176,-0.88491 1.7517,-0.1677 3.52245,-0.12222 5.26028,0.14203 0.60158,0.0915 1.20045,0.20553 1.79167,0.34959 0.72917,0.2338 1.43266,0.4357 2.05385,0.73742 0.34968,0.16898 0.68226,0.37398 0.9887,0.61179 0.3176,0.24647 0.60523,0.52556 0.85759,0.83574 0.13901,0.0969 0.1848,0.37872 0.25127,0.69919 0.007,0.33213 0.006,0.64159 -0.13109,0.78113 -0.28992,0.4518 -0.66417,0.84585 -1.09794,1.15802 -0.10402,0.0749 -0.21194,0.14852 -0.32229,0.21303 -0.48186,0.28716 -1.05557,0.48891 -1.6551,0.73743 -0.94446,0.30598 -1.91254,0.52714 -2.89507,0.67187 -1.73038,0.25489 -3.50813,0.26946 -5.26574,0.0874 -0.93408,-0.0968 -1.86366,-0.25066 -2.78036,-0.45338 -0.81211,-0.22104 -1.60536,-0.4414 -2.35429,-0.73743 -0.15559,-0.0615 -0.31315,-0.12803 -0.46431,-0.19664 -0.97576,-0.43935 -1.87097,-1.04698 -2.61102,-1.80805 -0.27513,-0.28293 -0.49076,-0.63479 -0.63363,-1.01054 -0.006,-0.0164 -0.0105,-0.0326 -0.0164,-0.0492 -0.15952,-0.4454 -0.20045,-0.93708 -0.0765,-1.37106 0.21085,-0.60339 0.5474,-1.15874 0.99962,-1.57863 0.30672,-0.29913 0.69953,-0.55137 1.11432,-0.83029 l -0.58447,-0.95591 z"
       id="path5596"
       inkscape:connector-curvature="0" />
    <path
       style="fill:#ddda34;fill-opacity:1;stroke:#000000;stroke-width:0.34959304;stroke-linecap:round;stroke-linejoin:round;stroke-miterlimit:10;stroke-opacity:1"
       d="m 173.50538,489.69497 c -1.34598,0.066 -2.69325,0.24136 -4.01486,0.54078 -0.48164,0.12512 -0.97117,0.25046 -1.45845,0.39876 -0.55489,0.16887 -1.10457,0.3624 -1.64964,0.60086 -1.13712,0.50102 -2.18948,1.21398 -3.06441,2.10848 -0.0591,0.0617 -0.11448,0.12604 -0.16933,0.19119 -0.29982,0.35611 -0.53706,0.75859 -0.69919,1.1908 -0.24957,0.67045 -0.29984,1.41758 -0.11471,2.13033 0.2702,0.78288 0.71671,1.51572 1.33283,2.10302 0.0583,0.0535 0.11551,0.10817 0.17479,0.15841 0.44747,0.37918 0.92052,0.66745 1.34922,0.95046 1.17746,0.64636 2.43409,1.13848 3.72535,1.48577 0.44991,0.121 0.90297,0.22547 1.36013,0.31135 1.3817,0.25605 2.77882,0.36114 4.1678,0.37691 0.30976,0.003 0.61988,0.005 0.92861,0 1.2894,-0.0703 2.60007,-0.18165 3.90015,-0.46977 0.23565,-0.0533 0.47168,-0.11409 0.70465,-0.18025 1.13304,-0.32181 2.22749,-0.79814 3.22827,-1.44208 0.28382,-0.23285 0.63968,-0.48606 0.96684,-0.86305 0.24153,-0.31117 0.41163,-0.66167 0.52439,-1.02147 0.0804,-0.25652 0.13292,-0.51899 0.15295,-0.78112 -0.065,-0.63375 -0.29867,-1.26797 -0.7265,-1.79713 -0.33792,-0.37507 -0.70443,-0.63062 -0.99416,-0.86306 -0.60454,-0.3787 -1.23753,-0.69846 -1.89545,-0.96138 -0.68016,-0.27181 -1.38588,-0.48386 -2.09755,-0.6391 -1.13747,-0.24302 -2.28072,-0.3513 -3.414,-0.41514 -0.18218,-0.0103 -0.3648,-0.0191 -0.54624,-0.0273 -1.65833,-0.0122 -3.33289,0.0853 -4.98716,0.39876 -0.0149,0.003 -0.0342,0.003 -0.0492,0.005 -1.74992,0.34035 -3.4538,0.93857 -5.01994,1.81351 -0.0615,0.0413 -0.12265,0.0837 -0.18572,0.12564 l 0.58448,0.95592 c 0.062,-0.0418 0.12283,-0.0879 0.18572,-0.1311 1.43747,-0.80455 3.01965,-1.35348 4.64849,-1.66603 0.014,-0.003 0.0297,-0.003 0.0437,-0.005 1.54983,-0.29776 3.1486,-0.39174 4.75227,-0.38237 0.1772,0.008 0.35336,0.0172 0.52985,0.0274 1.09782,0.0629 2.17731,0.16566 3.22281,0.39329 0.64511,0.13727 1.28031,0.32818 1.88999,0.56808 0.58974,0.23206 1.15519,0.51187 1.68788,0.84667 0.32037,0.26761 0.62054,0.46026 0.79751,0.68281 0.26141,0.27081 0.40417,0.67162 0.45884,1.08701 -0.018,0.16998 -0.0528,0.33453 -0.10379,0.49162 -0.0716,0.22033 -0.17563,0.42162 -0.32227,0.57901 -0.16793,0.22063 -0.45412,0.41674 -0.76474,0.6828 -0.87918,0.56769 -1.86268,0.98371 -2.88414,1.26728 -0.21003,0.0583 -0.42051,0.11135 -0.63364,0.15841 -1.19237,0.26934 -2.43736,0.37615 -3.69804,0.44791 -0.2984,0.004 -0.59259,0.003 -0.89037,0 -1.33528,-0.0157 -2.66538,-0.11701 -3.96023,-0.36052 -0.42592,-0.0789 -0.84911,-0.17281 -1.26728,-0.28404 -1.20013,-0.31924 -2.35917,-0.77049 -3.4413,-1.3656 -0.43878,-0.29591 -0.86351,-0.55508 -1.20719,-0.85213 -0.0455,-0.0394 -0.0885,-0.0792 -0.1311,-0.12018 -0.46631,-0.42681 -0.80935,-0.99896 -1.02693,-1.61687 -0.12357,-0.4485 -0.0807,-0.95511 0.0929,-1.40929 0.11889,-0.31473 0.28863,-0.60861 0.50254,-0.86306 0.0391,-0.0465 0.0782,-0.0929 0.12017,-0.13656 0.76549,-0.78588 1.6976,-1.41659 2.70935,-1.86268 0.48599,-0.21598 0.99494,-0.38779 1.51855,-0.54623 0.45982,-0.13915 0.93365,-0.26805 1.40929,-0.3933 1.24483,-0.28261 2.51935,-0.44016 3.80182,-0.50254 z"
       id="path5578"
       inkscape:connector-curvature="0" />
  </g>
</svg>
